<?xml version="1.0" encoding="UTF-8" standalone="no"?>
<!-- Created with Inkscape (http://www.inkscape.org/) -->

<svg
   xmlns:svg="http://www.w3.org/2000/svg"
   xmlns="http://www.w3.org/2000/svg"
   version="1.1"
   width="92.801498mm"
   height="92.801201mm"
   viewBox="0 0 92.8016 92.8013"
   id="svg2"
   xml:space="preserve"
   style="fill-rule:evenodd">
 <defs
   id="defs4">
  <style
   type="text/css"
   id="style6" />
 </defs>
 <g
   id="Layer_x0020_1">
  
  <g
   id="_300185600">
   <g
   id="g11">
    <g
   id="g13">
     <line
   id="_357166904"
   class="fil0 str0"
   x1="46.4006"
   y1="0.17110001"
   x2="46.4006"
   y2="92.630203"
   style="fill:none;stroke:#898989;stroke-width:0.0762001" />
     <polygon
   points="46.4006,0.1711 43.6581,4.1007 46.4006,46.4006 "
   id="_357166760"
   style="fill:#fefefe;stroke:#898989;stroke-width:0.0762001" />
     <polygon
   points="40.2286,3.5576 43.658,4.1007 46.4006,46.4006 "
   id="_357166616"
   style="fill:#b2b3b3;stroke:#898989;stroke-width:0.0762001" />
     <polygon
   points="37.8253,8.63721 40.2285,3.5575 46.4006,46.4006 "
   id="_357166472"
   style="fill:#fefefe;stroke:#898989;stroke-width:0.0762001" />
     <polygon
   points="34.985,8.58261 37.8253,8.63721 46.4006,46.4006 "
   id="_357166328"
   style="fill:#b2b3b3;stroke:#898989;stroke-width:0.0762001" />
     <polygon
   points="34.985,8.58261 33.3465,11.3683 46.4006,46.4006 "
   id="_357166184"
   style="fill:#fefefe;stroke:#898989;stroke-width:0.0762001" />
     <polygon
   points="30.8339,11.3682 33.3465,11.3683 46.4006,46.4006 "
   id="_357166040"
   style="fill:#b2b3b3;stroke:#898989;stroke-width:0.0762001" />
     <polygon
   points="30.8339,11.3682 29.1682,13.4986 46.4006,46.4006 "
   id="_357165896"
   style="fill:#fefefe;stroke:#898989;stroke-width:0.0762001" />
     <polygon
   points="25.2146,11.7229 29.1682,13.4986 46.4006,46.4006 "
   id="_357165752"
   style="fill:#b2b3b3;stroke:#898989;stroke-width:0.0762001" />
     <polygon
   points="25.2146,11.7229 24.2854,14.6715 46.4006,46.4006 "
   id="_357165608"
   style="fill:#fefefe;stroke:#898989;stroke-width:0.0762001" />
     <polygon
   points="19.0971,12.1052 24.2854,14.6715 46.4006,46.4006 "
   id="_357165464"
   style="fill:#b2b3b3;stroke:#898989;stroke-width:0.0762001" />
     <polygon
   points="19.0971,12.1052 19.2057,15.7092 46.4006,46.4006 "
   id="_357165320"
   style="fill:#fefefe;stroke:#898989;stroke-width:0.0762001" />
     <polygon
   points="13.7116,13.7114 19.2057,15.7092 46.4006,46.4006 "
   id="_357165176"
   style="fill:#b2b3b3;stroke:#898989;stroke-width:0.0762001" />
     <g
   id="g28">
      <polygon
   points="13.7114,13.7114 14.5508,18.4293 46.4006,46.4006 "
   id="_357165032"
   style="fill:#fefefe;stroke:#898989;stroke-width:0.0762001" />
      <polygon
   points="13.7114,13.7114 18.4293,14.5508 46.4006,46.4006 "
   id="_357164888"
   style="fill:#b2b3b3;stroke:#898989;stroke-width:0.0762001" />
      <polygon
   points="11.7417,20.4703 14.5508,18.4294 46.4006,46.4006 "
   id="_357164744"
   style="fill:#b2b3b3;stroke:#898989;stroke-width:0.0762001" />
      <polygon
   points="13.6342,25.7615 11.7416,20.4703 46.4006,46.4006 "
   id="_357164600"
   style="fill:#fefefe;stroke:#898989;stroke-width:0.0762001" />
      <polygon
   points="11.5872,27.7313 13.6342,25.7616 46.4006,46.4006 "
   id="_357164456"
   style="fill:#b2b3b3;stroke:#898989;stroke-width:0.0762001" />
      <polygon
   points="11.5872,27.7313 12.3983,30.8597 46.4006,46.4006 "
   id="_357164312"
   style="fill:#fefefe;stroke:#898989;stroke-width:0.0762001" />
      <polygon
   points="10.6216,32.6363 12.3983,30.8597 46.4006,46.4006 "
   id="_357164168"
   style="fill:#b2b3b3;stroke:#898989;stroke-width:0.0762001" />
      <polygon
   points="10.6216,32.6363 10.9502,35.3205 46.4006,46.4006 "
   id="_356982520"
   style="fill:#fefefe;stroke:#898989;stroke-width:0.0762001" />
      <polygon
   points="6.89901,36.8605 10.9502,35.3205 46.4006,46.4006 "
   id="_356982376"
   style="fill:#b2b3b3;stroke:#898989;stroke-width:0.0762001" />
      <polygon
   points="6.89901,36.8605 8.32691,39.6026 46.4006,46.4006 "
   id="_356982232"
   style="fill:#fefefe;stroke:#898989;stroke-width:0.0762001" />
      <polygon
   points="2.8436,41.4566 8.32691,39.6026 46.4006,46.4006 "
   id="_356982088"
   style="fill:#b2b3b3;stroke:#898989;stroke-width:0.0762001" />
      <polygon
   points="2.8436,41.4566 5.46881,43.9282 46.4006,46.4006 "
   id="_356981944"
   style="fill:#fefefe;stroke:#898989;stroke-width:0.0762001" />
      <polygon
   points="0.1712,46.4005 5.46881,43.9282 46.4006,46.4006 "
   id="_356981728"
   style="fill:#b2b3b3;stroke:#898989;stroke-width:0.0762001" />
     </g>
     <g
   id="g43">
      <polygon
   points="0.1711,46.4006 4.1007,49.1433 46.4006,46.4006 "
   id="_356981608"
   style="fill:#fefefe;stroke:#898989;stroke-width:0.0762001" />
      <polygon
   points="0.1711,46.4006 4.1007,43.6581 46.4006,46.4006 "
   id="_356981464"
   style="fill:#b2b3b3;stroke:#898989;stroke-width:0.0762001" />
      <polygon
   points="3.5575,52.5728 4.1007,49.1433 46.4006,46.4006 "
   id="_356981320"
   style="fill:#b2b3b3;stroke:#898989;stroke-width:0.0762001" />
      <polygon
   points="8.63721,54.9761 3.5575,52.5728 46.4006,46.4006 "
   id="_356981176"
   style="fill:#fefefe;stroke:#898989;stroke-width:0.0762001" />
      <polygon
   points="8.58261,57.8163 8.63721,54.9761 46.4006,46.4006 "
   id="_356981032"
   style="fill:#b2b3b3;stroke:#898989;stroke-width:0.0762001" />
      <polygon
   points="8.58261,57.8163 11.3683,59.4549 46.4006,46.4006 "
   id="_356980888"
   style="fill:#fefefe;stroke:#898989;stroke-width:0.0762001" />
      <polygon
   points="11.3682,61.9675 11.3683,59.4549 46.4006,46.4006 "
   id="_356980744"
   style="fill:#b2b3b3;stroke:#898989;stroke-width:0.0762001" />
      <polygon
   points="11.3682,61.9675 13.4985,63.6331 46.4006,46.4006 "
   id="_357059232"
   style="fill:#fefefe;stroke:#898989;stroke-width:0.0762001" />
      <polygon
   points="11.7229,67.5868 13.4985,63.6331 46.4006,46.4006 "
   id="_357059136"
   style="fill:#b2b3b3;stroke:#898989;stroke-width:0.0762001" />
      <polygon
   points="11.7229,67.5868 14.6715,68.5159 46.4006,46.4006 "
   id="_357058992"
   style="fill:#fefefe;stroke:#898989;stroke-width:0.0762001" />
      <polygon
   points="12.1052,73.7042 14.6715,68.5159 46.4006,46.4006 "
   id="_357058848"
   style="fill:#b2b3b3;stroke:#898989;stroke-width:0.0762001" />
      <polygon
   points="12.1052,73.7042 15.7092,73.5956 46.4006,46.4006 "
   id="_357058704"
   style="fill:#fefefe;stroke:#898989;stroke-width:0.0762001" />
      <polygon
   points="13.7114,79.0897 15.7092,73.5956 46.4006,46.4006 "
   id="_357058488"
   style="fill:#b2b3b3;stroke:#898989;stroke-width:0.0762001" />
     </g>
     <g
   id="g58">
      <polygon
   points="13.7114,79.0899 18.4293,78.2505 46.4006,46.4006 "
   id="_357058368"
   style="fill:#fefefe;stroke:#898989;stroke-width:0.0762001" />
      <polygon
   points="13.7114,79.0899 14.5508,74.372 46.4006,46.4006 "
   id="_357058224"
   style="fill:#b2b3b3;stroke:#898989;stroke-width:0.0762001" />
      <polygon
   points="20.4703,81.0597 18.4294,78.2506 46.4006,46.4006 "
   id="_357058080"
   style="fill:#b2b3b3;stroke:#898989;stroke-width:0.0762001" />
      <polygon
   points="25.7615,79.1672 20.4703,81.0597 46.4006,46.4006 "
   id="_357057936"
   style="fill:#fefefe;stroke:#898989;stroke-width:0.0762001" />
      <polygon
   points="27.7313,81.2141 25.7616,79.1671 46.4006,46.4006 "
   id="_357057792"
   style="fill:#b2b3b3;stroke:#898989;stroke-width:0.0762001" />
      <polygon
   points="27.7313,81.2141 30.8597,80.403 46.4006,46.4006 "
   id="_357057648"
   style="fill:#fefefe;stroke:#898989;stroke-width:0.0762001" />
      <polygon
   points="32.6363,82.1797 30.8597,80.403 46.4006,46.4006 "
   id="_357057504"
   style="fill:#b2b3b3;stroke:#898989;stroke-width:0.0762001" />
      <polygon
   points="32.6363,82.1797 35.3205,81.8511 46.4006,46.4006 "
   id="_357057360"
   style="fill:#fefefe;stroke:#898989;stroke-width:0.0762001" />
      <polygon
   points="36.8605,85.9024 35.3205,81.8511 46.4006,46.4006 "
   id="_357057216"
   style="fill:#b2b3b3;stroke:#898989;stroke-width:0.0762001" />
      <polygon
   points="36.8605,85.9024 39.6026,84.4744 46.4006,46.4006 "
   id="_357057072"
   style="fill:#fefefe;stroke:#898989;stroke-width:0.0762001" />
      <polygon
   points="41.4566,89.9578 39.6026,84.4744 46.4006,46.4006 "
   id="_357056928"
   style="fill:#b2b3b3;stroke:#898989;stroke-width:0.0762001" />
      <polygon
   points="41.4566,89.9578 43.9282,87.3325 46.4006,46.4006 "
   id="_357056784"
   style="fill:#fefefe;stroke:#898989;stroke-width:0.0762001" />
      <polygon
   points="46.4005,92.6301 43.9282,87.3325 46.4006,46.4006 "
   id="_357056688"
   style="fill:#b2b3b3;stroke:#898989;stroke-width:0.0762001" />
     </g>
    </g>
    <g
   id="g73">
     <line
   id="_357056400"
   class="fil0 str0"
   x1="46.401001"
   y1="92.630203"
   x2="46.401001"
   y2="0.17120001"
   style="fill:none;stroke:#898989;stroke-width:0.0762001" />
     <polygon
   points="46.401,92.6302 49.1435,88.7006 46.401,46.4006 "
   id="_357056256"
   style="fill:#fefefe;stroke:#898989;stroke-width:0.0762001" />
     <polygon
   points="52.573,89.2438 49.1436,88.7006 46.401,46.4006 "
   id="_357056112"
   style="fill:#b2b3b3;stroke:#898989;stroke-width:0.0762001" />
     <polygon
   points="54.9763,84.1641 52.5731,89.2438 46.401,46.4006 "
   id="_357055968"
   style="fill:#fefefe;stroke:#898989;stroke-width:0.0762001" />
     <polygon
   points="57.8166,84.2187 54.9763,84.1641 46.401,46.4006 "
   id="_357055824"
   style="fill:#b2b3b3;stroke:#898989;stroke-width:0.0762001" />
     <polygon
   points="57.8166,84.2187 59.4551,81.4331 46.401,46.4006 "
   id="_357055680"
   style="fill:#fefefe;stroke:#898989;stroke-width:0.0762001" />
     <polygon
   points="61.9677,81.4331 59.4551,81.4331 46.401,46.4006 "
   id="_357055536"
   style="fill:#b2b3b3;stroke:#898989;stroke-width:0.0762001" />
     <polygon
   points="61.9677,81.4331 63.6334,79.3028 46.401,46.4006 "
   id="_357055392"
   style="fill:#fefefe;stroke:#898989;stroke-width:0.0762001" />
     <polygon
   points="67.587,81.0785 63.6334,79.3028 46.401,46.4006 "
   id="_357055224"
   style="fill:#b2b3b3;stroke:#898989;stroke-width:0.0762001" />
     <polygon
   points="67.587,81.0785 68.5162,78.1298 46.401,46.4006 "
   id="_357050992"
   style="fill:#fefefe;stroke:#898989;stroke-width:0.0762001" />
     <polygon
   points="73.7045,80.6962 68.5162,78.1298 46.401,46.4006 "
   id="_357050848"
   style="fill:#b2b3b3;stroke:#898989;stroke-width:0.0762001" />
     <polygon
   points="73.7045,80.6962 73.5959,77.0921 46.401,46.4006 "
   id="_357050704"
   style="fill:#fefefe;stroke:#898989;stroke-width:0.0762001" />
     <polygon
   points="79.09,79.0899 73.5959,77.0921 46.401,46.4006 "
   id="_357050560"
   style="fill:#b2b3b3;stroke:#898989;stroke-width:0.0762001" />
     <g
   id="g88">
      <polygon
   points="79.0902,79.0899 78.2508,74.372 46.401,46.4006 "
   id="_357050416"
   style="fill:#fefefe;stroke:#898989;stroke-width:0.0762001" />
      <polygon
   points="79.0902,79.0899 74.3723,78.2505 46.401,46.4006 "
   id="_357050272"
   style="fill:#b2b3b3;stroke:#898989;stroke-width:0.0762001" />
      <polygon
   points="81.0599,72.331 78.2508,74.372 46.401,46.4006 "
   id="_357050128"
   style="fill:#b2b3b3;stroke:#898989;stroke-width:0.0762001" />
      <polygon
   points="79.1674,67.0398 81.06,72.3311 46.401,46.4006 "
   id="_357049984"
   style="fill:#fefefe;stroke:#898989;stroke-width:0.0762001" />
      <polygon
   points="81.2144,65.0701 79.1674,67.0398 46.401,46.4006 "
   id="_357049840"
   style="fill:#b2b3b3;stroke:#898989;stroke-width:0.0762001" />
      <polygon
   points="81.2144,65.0701 80.4033,61.9417 46.401,46.4006 "
   id="_357049696"
   style="fill:#fefefe;stroke:#898989;stroke-width:0.0762001" />
      <polygon
   points="82.18,60.165 80.4033,61.9417 46.401,46.4006 "
   id="_357049552"
   style="fill:#b2b3b3;stroke:#898989;stroke-width:0.0762001" />
      <polygon
   points="82.18,60.165 81.8514,57.4809 46.401,46.4006 "
   id="_357049408"
   style="fill:#fefefe;stroke:#898989;stroke-width:0.0762001" />
      <polygon
   points="85.9026,55.9408 81.8514,57.4809 46.401,46.4006 "
   id="_357049264"
   style="fill:#b2b3b3;stroke:#898989;stroke-width:0.0762001" />
      <polygon
   points="85.9026,55.9408 84.4747,53.1988 46.401,46.4006 "
   id="_357049120"
   style="fill:#fefefe;stroke:#898989;stroke-width:0.0762001" />
      <polygon
   points="89.958,51.3448 84.4747,53.1988 46.401,46.4006 "
   id="_357048976"
   style="fill:#b2b3b3;stroke:#898989;stroke-width:0.0762001" />
      <polygon
   points="89.958,51.3448 87.3328,48.8731 46.401,46.4006 "
   id="_357048832"
   style="fill:#fefefe;stroke:#898989;stroke-width:0.0762001" />
      <polygon
   points="92.6304,46.4007 87.3328,48.8731 46.401,46.4006 "
   id="_357048616"
   style="fill:#b2b3b3;stroke:#898989;stroke-width:0.0762001" />
     </g>
     <g
   id="g103">
      <polygon
   points="92.6305,46.4006 88.7009,43.6581 46.401,46.4006 "
   id="_357048496"
   style="fill:#fefefe;stroke:#898989;stroke-width:0.0762001" />
      <polygon
   points="92.6305,46.4006 88.7009,49.1433 46.401,46.4006 "
   id="_357048352"
   style="fill:#b2b3b3;stroke:#898989;stroke-width:0.0762001" />
      <polygon
   points="89.244,40.2286 88.7009,43.658 46.401,46.4006 "
   id="_357048208"
   style="fill:#b2b3b3;stroke:#898989;stroke-width:0.0762001" />
      <polygon
   points="84.1644,37.8253 89.2441,40.2285 46.401,46.4006 "
   id="_357048064"
   style="fill:#fefefe;stroke:#898989;stroke-width:0.0762001" />
      <polygon
   points="84.219,34.985 84.1644,37.8253 46.401,46.4006 "
   id="_357047920"
   style="fill:#b2b3b3;stroke:#898989;stroke-width:0.0762001" />
      <polygon
   points="84.219,34.985 81.4333,33.3465 46.401,46.4006 "
   id="_357047776"
   style="fill:#fefefe;stroke:#898989;stroke-width:0.0762001" />
      <polygon
   points="81.4334,30.8339 81.4333,33.3465 46.401,46.4006 "
   id="_357047632"
   style="fill:#b2b3b3;stroke:#898989;stroke-width:0.0762001" />
      <polygon
   points="81.4334,30.8339 79.303,29.1682 46.401,46.4006 "
   id="_357047488"
   style="fill:#fefefe;stroke:#898989;stroke-width:0.0762001" />
      <polygon
   points="81.0787,25.2146 79.303,29.1682 46.401,46.4006 "
   id="_357047344"
   style="fill:#b2b3b3;stroke:#898989;stroke-width:0.0762001" />
      <polygon
   points="81.0787,25.2146 78.1301,24.2854 46.401,46.4006 "
   id="_357047200"
   style="fill:#fefefe;stroke:#898989;stroke-width:0.0762001" />
      <polygon
   points="80.6964,19.0971 78.1301,24.2854 46.401,46.4006 "
   id="_357047008"
   style="fill:#b2b3b3;stroke:#898989;stroke-width:0.0762001" />
      <polygon
   points="80.6964,19.0971 77.0924,19.2057 46.401,46.4006 "
   id="_356990328"
   style="fill:#fefefe;stroke:#898989;stroke-width:0.0762001" />
      <polygon
   points="79.0902,13.7116 77.0924,19.2057 46.401,46.4006 "
   id="_356990160"
   style="fill:#b2b3b3;stroke:#898989;stroke-width:0.0762001" />
     </g>
     <g
   id="g118">
      <polygon
   points="79.0902,13.7114 74.3723,14.5508 46.401,46.4006 "
   id="_356990040"
   style="fill:#fefefe;stroke:#898989;stroke-width:0.0762001" />
      <polygon
   points="79.0902,13.7114 78.2508,18.4293 46.401,46.4006 "
   id="_356989896"
   style="fill:#b2b3b3;stroke:#898989;stroke-width:0.0762001" />
      <polygon
   points="72.3313,11.7417 74.3722,14.5508 46.401,46.4006 "
   id="_356989752"
   style="fill:#b2b3b3;stroke:#898989;stroke-width:0.0762001" />
      <polygon
   points="67.0401,13.6342 72.3313,11.7416 46.401,46.4006 "
   id="_356989608"
   style="fill:#fefefe;stroke:#898989;stroke-width:0.0762001" />
      <polygon
   points="65.0703,11.5872 67.04,13.6342 46.401,46.4006 "
   id="_356989464"
   style="fill:#b2b3b3;stroke:#898989;stroke-width:0.0762001" />
      <polygon
   points="65.0703,11.5872 61.9419,12.3983 46.401,46.4006 "
   id="_356989320"
   style="fill:#fefefe;stroke:#898989;stroke-width:0.0762001" />
      <polygon
   points="60.1653,10.6216 61.9419,12.3983 46.401,46.4006 "
   id="_356989176"
   style="fill:#b2b3b3;stroke:#898989;stroke-width:0.0762001" />
      <polygon
   points="60.1653,10.6216 57.4811,10.9502 46.401,46.4006 "
   id="_356989032"
   style="fill:#fefefe;stroke:#898989;stroke-width:0.0762001" />
      <polygon
   points="55.9411,6.89901 57.4811,10.9502 46.401,46.4006 "
   id="_356988888"
   style="fill:#b2b3b3;stroke:#898989;stroke-width:0.0762001" />
      <polygon
   points="55.9411,6.89901 53.199,8.32691 46.401,46.4006 "
   id="_356988744"
   style="fill:#fefefe;stroke:#898989;stroke-width:0.0762001" />
      <polygon
   points="51.345,2.8436 53.199,8.32691 46.401,46.4006 "
   id="_356988600"
   style="fill:#b2b3b3;stroke:#898989;stroke-width:0.0762001" />
      <polygon
   points="51.345,2.8436 48.8734,5.46881 46.401,46.4006 "
   id="_356988456"
   style="fill:#fefefe;stroke:#898989;stroke-width:0.0762001" />
      <polygon
   points="46.4011,0.1712 48.8734,5.46881 46.401,46.4006 "
   id="_299947688"
   style="fill:#b2b3b3;stroke:#898989;stroke-width:0.0762001" />
     </g>
    </g>
   </g>
   <g
   id="g133">
    <path
   d="m 32.7558,64.9621 13.6687,6.03441 13.6211,-6.03441 c 2.5242,-1.1374 4.0641,-3.5859 4.0641,-6.31881 l 0,-36.8385 -17.6852,0 -17.7328,0 0,36.8385 c 0,0 0,0 0,0 0,2.7329 1.6034,5.18141 4.0641,6.31881 z"
   id="_300053352"
   style="fill:#008dd2" />
    <path
   d="m 40.938,58.2133 -6.88221,0 0,-29.9249 c 3.6929,2.0296 6.16501,5.72251 6.66861,9.84271 l 0.976601,8.80501 c -0.1526,-0.0458 -0.2747,-0.0458 -0.4273,-0.0458 -1.1597,0 -2.0906,0.930901 -2.0906,2.0296 0,1.1598 0.930901,2.0907 2.0906,2.0907 0.2747,0 0.549401,-0.0611 0.763001,-0.1679 2.0906,-3.403 3.1894,-7.26381 3.1894,-11.2161 l -0.3205,-10.2853 c 0,-1.5413 0.549401,-2.9757 1.526,-4.1355 0.991901,1.1598 1.5413,2.5942 1.5413,4.1355 l -0.3205,10.2853 c 0,0 0,0 0,0 0,3.9523 1.0987,7.85891 3.1283,11.2161 0.2747,0.1068 0.549401,0.1679 0.824001,0.1679 1.0988,0 2.0449,-0.930901 2.0449,-2.0907 0,-1.0987 -0.946101,-2.0296 -2.0449,-2.0296 -0.1526,0 -0.3204,0 -0.488301,0.0458 l 1.0377,-8.80501 c 0.503601,-4.1813 2.9757,-7.81311 6.66861,-9.84271 l 0,29.9249 -6.94331,0 c -0.488301,2.701 -1.9227,5.11211 -4.1202,6.88231 -0.1678,0.1068 -0.3357,0.2136 -0.488301,0.3815 -0.3357,0.2746 -0.610401,0.610401 -0.839301,0.991901 -0.2136,-0.3815 -0.488301,-0.717301 -0.824001,-0.991901 -0.1526,-0.1069 -0.3815,-0.2747 -0.549401,-0.3815 -2.1364,-1.7092 -3.6319,-4.1813 -4.1202,-6.88231 0,0 0,0 0,0 0,0 0,0 0,0 0,0 0,0 0,0 z M 37.2451,47.928 c 0.3357,-1.2055 1.114,-2.1974 2.2127,-2.701 l -0.778301,-6.82121 c -0.2746,-2.1364 -1.1445,-4.1813 -2.5789,-5.82941 l 0,15.3516 1.1445,0 z m -1.1445,2.0296 1.1445,0 c 0.503601,1.816 2.0906,3.0825 3.9676,3.0825 -0.3357,0.991901 -0.4425,2.0449 -0.4425,3.1436 0,0 0,0 0,0 l -4.66961,0 0,-6.22611 z m 9.29331,6.22611 c 0,-1.3276 -0.930801,-2.4263 -2.1974,-2.5942 -0.2747,0.824001 -0.3815,1.7091 -0.3815,2.5942 0,0 0,0 0,0 l 2.5789,0 z m -2.2585,2.0296 2.2585,0 0,4.3491 c -1.1597,-1.2055 -1.9838,-2.701 -2.2585,-4.3491 z m 6.54661,0 -2.1975,0 0,4.3491 c 1.1598,-1.2055 1.9228,-2.701 2.1975,-4.3491 z m 0.3357,-2.0296 c 0,-0.885101 -0.1068,-1.7702 -0.3357,-2.5942 -1.2666,0.1679 -2.1975,1.2666 -2.1975,2.5942 l 2.5332,0 z m -5.99721,-4.6238 c 1.1598,-1.9838 1.8617,-3.6319 2.4111,-5.66151 0.564601,2.0296 1.2666,3.7845 2.3806,5.72261 l -2.4874,1.587 -2.3043,-1.6481 z m 8.08781,4.6238 c 0,-1.0529 -0.1678,-2.0906 -0.4425,-3.1436 1.877,0 3.464,-1.2665 3.9065,-3.0825 l 1.1598,0 0,6.22611 -4.6238,0 z m 4.6238,-6.22611 0,0 0,0 z m -1.1598,-2.0448 1.1598,0 0,-15.3516 c -1.3734,1.6481 -2.2585,3.6319 -2.5332,5.79881 l -0.824001,6.86701 c 1.0987,0.549401 1.9228,1.4955 2.1974,2.6858 z"
   id="_300190864"
   style="fill:#ffed00" />
    <path
   d="m 29.5814,58.8662 0.0122,0.2212 0.0201,0.2193 0.0279,0.2172 0.0356,0.2152 0.0433,0.2128 0.0507,0.2104 0.058,0.2078 0.0653,0.205 0.0724,0.2021 0.0795,0.1991 0.0863,0.1959 0.0931,0.1925 0.0998,0.189 0.1064,0.1852 0.1127,0.1814 0.1191,0.1772 0.1253,0.1732 0.1314,0.1687 0.1373,0.1642 0.1432,0.1594 0.1488,0.1546 0.1545,0.1495 0.16,0.1443 0.1652,0.1389 0.1706,0.1334 0.1757,0.1276 0.1807,0.1218 0.1856,0.1157 0.1904,0.1096 0.1952,0.1032 0.2,0.0968 13.2962,5.87001 13.2532,-5.87151 0.2095,-0.099 0.1994,-0.1032 0.1939,-0.1094 0.1885,-0.1156 0.1828,-0.1215 0.1773,-0.1273 0.1716,-0.1329 0.1659,-0.1383 0.16,-0.1437 0.1542,-0.1489 0.1483,-0.1539 0.1422,-0.1587 0.1362,-0.1634 0.13,-0.168 0.1237,-0.1724 0.1175,-0.1766 0.111,-0.1808 0.1045,-0.1847 0.0979,-0.1884 0.0913,-0.1922 0.0845,-0.1956 0.0777,-0.1989 0.0707,-0.2022 0.0637,-0.2051 0.0565,-0.2081 0.0493,-0.2108 0.042,-0.2134 0.0347,-0.2158 0.027,-0.2181 0.0195,-0.2203 0.0118,-0.2223 0.0041,-0.2319 0,-35.9452 -33.6471,0 0,35.9449 0.0042,0.231 z m 3.1744,6.09591 13.6687,6.03451 13.6211,-6.03451 c 2.5242,-1.1374 4.0641,-3.5859 4.0641,-6.31881 l 0,-36.8385 -17.6852,0 -17.7328,0 0,36.8385 c 0,0 0,0 0,0 0,2.7329 1.6034,5.18141 4.0641,6.31881 z"
   id="_299715328"
   style="fill:#ffed00" />
   </g>
  </g>
 </g>
</svg>